<svg width="15" height="24" viewBox="0 0 15 24" fill="none" xmlns="http://www.w3.org/2000/svg">
<path d="M15 7.76471C15 3.47294 11.6455 0 7.5 0C3.35455 0 0 3.47294 0 7.76471C0 11.5765 2.64545 14.7247 6.13636 15.3882V18.3529H3.40909V21.1765H6.13636V24H8.86364V21.1765H11.5909V18.3529H8.86364V15.3882C12.3545 14.7247 15 11.5765 15 7.76471ZM2.72727 7.76471C2.72727 5.04 4.86818 2.82353 7.5 2.82353C10.1318 2.82353 12.2727 5.04 12.2727 7.76471C12.2727 10.4894 10.1318 12.7059 7.5 12.7059C4.86818 12.7059 2.72727 10.4894 2.72727 7.76471Z" fill="#3C9785"/>
</svg>
