<svg width="49" height="46" viewBox="0 0 49 46" fill="none" xmlns="http://www.w3.org/2000/svg">
<rect x="10.2083" y="3.83337" width="30.625" height="23" rx="2" fill="#559D8F"/>
<path d="M4.08325 10.8666C4.08325 9.74652 4.08325 9.18647 4.30124 8.75864C4.49299 8.38232 4.79895 8.07636 5.17527 7.88461C5.60309 7.66663 6.16315 7.66663 7.28325 7.66663H18.7642C19.3693 7.66663 19.6718 7.66663 19.9481 7.74786C20.1927 7.81979 20.4213 7.93784 20.6216 8.09564C20.8478 8.27385 21.023 8.52051 21.3733 9.01382L23.5432 12.0694C23.8935 12.5627 24.0687 12.8094 24.2949 12.9876C24.4952 13.1454 24.7238 13.2635 24.9684 13.3354C25.2447 13.4166 25.5472 13.4166 26.1523 13.4166H41.7166C42.8367 13.4166 43.3968 13.4166 43.8246 13.6346C44.2009 13.8264 44.5069 14.1323 44.6986 14.5086C44.9166 14.9365 44.9166 15.4965 44.9166 16.6166V35.1333C44.9166 36.2534 44.9166 36.8134 44.6986 37.2413C44.5069 37.6176 44.2009 37.9236 43.8246 38.1153C43.3968 38.3333 42.8367 38.3333 41.7166 38.3333H7.28325C6.16315 38.3333 5.60309 38.3333 5.17527 38.1153C4.79895 37.9236 4.49299 37.6176 4.30124 37.2413C4.08325 36.8134 4.08325 36.2534 4.08325 35.1333V10.8666Z" fill="#3C9785"/>
</svg>
