<svg width="22" height="23" viewBox="0 0 22 23" fill="none" xmlns="http://www.w3.org/2000/svg">
<path d="M7.5625 10.0625C10.2162 10.0625 12.375 12.3194 12.375 15.0938C12.375 17.8681 10.2162 20.125 7.5625 20.125C4.90875 20.125 2.75 17.8681 2.75 15.0938C2.75 12.3194 4.90875 10.0625 7.5625 10.0625ZM7.5625 7.1875C3.3825 7.1875 0 10.7238 0 15.0938C0 19.4638 3.3825 23 7.5625 23C11.7425 23 15.125 19.4638 15.125 15.0938C15.125 13.4263 14.63 11.8881 13.7912 10.6088L19.25 4.91625V8.625H22V0H13.75V2.875H17.2975L11.8387 8.58188C10.6287 7.705 9.1575 7.1875 7.5625 7.1875Z" fill="#3C9785"/>
</svg>
