<svg width="26" height="29" viewBox="0 0 26 29" fill="none" xmlns="http://www.w3.org/2000/svg">
<path d="M12.9453 9.22727C15.207 9.22727 17.0469 11.2968 17.0469 13.8409C17.0469 16.385 15.207 18.4545 12.9453 18.4545C10.6836 18.4545 8.84375 16.385 8.84375 13.8409C8.84375 11.2968 10.6836 9.22727 12.9453 9.22727ZM18.2539 9.72818L22.9062 4.50818V7.90909H25.25V0H18.2188V2.63636H21.2422L16.5898 7.86955C15.5586 7.06545 14.3047 6.59091 12.9453 6.59091C11.5859 6.59091 10.332 7.06545 9.30078 7.86955L8.53906 7.01273L10.1914 5.15409L8.53906 3.28227L6.875 5.14091L4.64844 2.63636H7.67188V0H0.640625V7.90909H2.98438V4.50818L5.22266 7.01273L3.55859 8.88455L5.21094 10.7432L6.86328 8.88455L7.625 9.74136C6.92188 10.9014 6.5 12.3118 6.5 13.8409C6.5 17.4 8.77344 20.3527 11.7734 20.9723V23.7273H9.42969V26.3636H11.7734V29H14.1172V26.3636H16.4609V23.7273H14.1172V20.9723C17.1172 20.3527 19.3906 17.4 19.3906 13.8409C19.3906 12.3118 18.9688 10.9014 18.2539 9.72818Z" fill="#3C9785"/>
</svg>
