<?xml version="1.0" encoding="UTF-8"?>
<svg id="Layer_1" data-name="Layer 1" xmlns="http://www.w3.org/2000/svg" viewBox="0 0 610 213.07">
  <defs>
    <style>
      .cls-1 {
        fill: #dce7d7;
      }
      .cls-2 {
        fill: #569383;
      }
    </style>
  </defs>
  <g>
    <path class="cls-2" d="M193.97,139.36h42.84v12.73h-63.21l47.3-96.95,47.3,96.95h-14.2l-33.1-67.92-26.93,55.19Z"/>
    <path class="cls-2" d="M287.74,152.09h-12.73V62.96h12.73v89.12Z"/>
    <path class="cls-2" d="M313.21,75.7v50.93h-12.73V62.96h38.2c12.31,0,22.81,4.35,31.51,13.05,8.7,8.7,13.05,19.2,13.05,31.51s-4.35,22.81-13.05,31.51c-8.7,8.7-19.2,13.05-31.51,13.05h-38.2v-12.73h38.2c8.78,0,16.29-3.11,22.5-9.33s9.33-13.72,9.33-22.5-3.11-16.29-9.33-22.5c-6.22-6.22-13.72-9.33-22.5-9.33h-25.46Z"/>
    <g>
      <rect class="cls-2" x="411.75" y="109.82" width="12.73" height="42.27"/>
      <polygon class="cls-2" points="447.59 62.96 418.12 97.72 388.64 62.96 371.96 62.96 411.75 109.82 424.48 109.82 464.27 62.96 447.59 62.96"/>
    </g>
    <path class="cls-2" d="M502.34,155.27c-13.2,0-24.46-4.66-33.77-13.97-9.32-9.31-13.97-20.57-13.97-33.77s4.66-24.46,13.97-33.77c9.32-9.31,20.57-13.97,33.77-13.97s24.46,4.66,33.77,13.97c9.32,9.32,13.97,20.57,13.97,33.77s-4.66,24.46-13.97,33.77c-9.32,9.32-20.57,13.97-33.77,13.97Zm0-12.73c9.68,0,17.93-3.42,24.76-10.25,6.83-6.83,10.25-15.09,10.25-24.76s-3.42-17.93-10.25-24.76c-6.83-6.83-15.09-10.25-24.76-10.25s-17.93,3.42-24.76,10.25c-6.83,6.83-10.25,15.09-10.25,24.76s3.42,17.93,10.25,24.76c6.83,6.83,15.09,10.25,24.76,10.25Z"/>
  </g>
  <g>
    <path class="cls-2" d="M121.6,136.69l-2.12-2.12-58.85-58.99c-1.14,5.23-.95,10.91,.72,16.66,2.6,8.93,7.74,16.32,14.2,22.83,13.21,13.31,26.5,26.53,39.73,39.81,1.81,1.82,3.51,3.75,5.37,5.76,14.74-14.77,29.01-29.06,43.27-43.37,5.57-5.59,10.28-11.98,13.99-18.99,3.48-6.58,4.69-13.78,3.38-21.14l-59.7,59.55Z"/>
    <path class="cls-1" d="M121.61,128.21l57.78-57.64c-6.6-15.95-25.43-22.94-42-14.46-6.73,3.45-11.89,8.65-16.1,14.32-4.61-4.2-8.62-8.66-13.39-12.05-11.2-7.98-25.56-7.82-35.94-.22-4.05,2.97-7.13,6.77-9.17,11.09l58.82,58.96Z"/>
  </g>
</svg>