<svg width="288" height="220" viewBox="0 0 288 220" fill="none" xmlns="http://www.w3.org/2000/svg">
<path opacity="0.7" d="M236.437 48.0708H232.67C232.15 48.0708 231.729 48.5079 231.729 49.0472C231.729 49.5865 232.15 50.0237 232.67 50.0237H236.437C236.957 50.0237 237.378 49.5865 237.378 49.0472C237.378 48.5079 236.957 48.0708 236.437 48.0708Z" stroke="white" stroke-miterlimit="10"/>
<path opacity="0.7" d="M232.319 49.0472V60.5967C232.319 60.5967 232.437 61.7551 231.496 62.2416C231.496 62.2416 224.434 65.4195 225.375 72.2581C225.375 72.2581 226.316 78.1203 230.552 79.0968H238.37C238.37 79.0968 243.028 78.8518 243.5 70.7917C243.5 70.7917 243.901 66.6199 239.321 63.2916C238.841 62.9321 238.324 62.6293 237.78 62.3886C237.43 62.2399 237.135 61.9804 236.937 61.6473C236.738 61.3142 236.646 60.9244 236.673 60.5337V49.0542L232.319 49.0472Z" stroke="white" stroke-miterlimit="10"/>
<path opacity="0.7" d="M227.493 67.1204H241.382C241.382 67.1204 244.164 74.2285 238.909 77.6409C238.419 77.9544 237.853 78.1181 237.277 78.1133H231.564C230.824 78.1097 230.109 77.8401 229.54 77.3504C227.837 75.8909 224.869 72.3841 227.493 67.1204Z" stroke="white" stroke-miterlimit="10"/>
<path opacity="0.7" d="M172.648 20.9576V16.9188C172.656 15.9144 172.496 14.9163 172.176 13.9684C171.9 13.0932 171.415 12.3046 170.766 11.676L165.414 6.77626C165.347 6.71315 165.293 6.63677 165.255 6.55164C165.217 6.46652 165.196 6.37438 165.194 6.2807C165.191 6.18702 165.206 6.09371 165.239 6.00629C165.271 5.91887 165.32 5.83914 165.383 5.77181V5.77181C165.504 5.65036 165.663 5.57982 165.831 5.574C165.999 5.56818 166.163 5.62748 166.29 5.74031L171.471 10.4546C171.471 10.4546 173.832 12.4075 173.832 16.8033V20.6531C173.832 20.6531 178.891 19.7676 182.055 20.8666C182.671 21.0896 183.237 21.4383 183.721 21.892L189.181 26.9283C189.301 27.037 189.38 27.1862 189.404 27.3496C189.428 27.5129 189.396 27.6798 189.313 27.8207V27.8207C189.262 27.9072 189.194 27.9812 189.114 28.0377C189.033 28.0943 188.941 28.132 188.845 28.1483C188.749 28.1646 188.651 28.1591 188.557 28.1321C188.463 28.1052 188.376 28.0575 188.301 27.9922L182.972 23.2255C182.309 22.6281 181.507 22.2214 180.645 22.046C178.321 21.6261 175.947 21.5918 173.613 21.9445C173.613 21.9445 173.38 29.2732 175.974 30.9811L181.441 35.9999C181.525 36.0767 181.593 36.1706 181.64 36.2757C181.688 36.3808 181.714 36.4949 181.718 36.611C181.721 36.7271 181.702 36.8427 181.66 36.9506C181.619 37.0586 181.557 37.1567 181.478 37.2388V37.2388C181.328 37.396 181.125 37.4862 180.912 37.4901C180.699 37.494 180.493 37.4114 180.338 37.2598L175.05 32.15C174.053 31.1871 173.339 29.9505 172.992 28.5837C172.391 26.5135 172.204 24.3375 172.442 22.1895C172.442 22.1895 166.129 23.5895 163.754 21.5386L157.683 16.0823C157.615 16.0193 157.559 15.9425 157.52 15.8566C157.481 15.7706 157.459 15.6773 157.456 15.5824C157.453 15.4874 157.469 15.3928 157.502 15.3042C157.535 15.2157 157.585 15.1351 157.649 15.0674V15.0674C157.769 14.9464 157.928 14.8758 158.095 14.8694C158.262 14.8629 158.425 14.921 158.553 15.0324L164.439 20.2366C164.439 20.2366 165.822 21.948 172.648 20.9576Z" stroke="white" stroke-miterlimit="10"/>
<path opacity="0.7" d="M167.002 8.2392L159.505 15.8863" stroke="white" stroke-miterlimit="10"/>
<path opacity="0.7" d="M168.415 9.70563L160.918 17.3528" stroke="white" stroke-miterlimit="10"/>
<path opacity="0.7" d="M170.446 11.3855L162.614 18.6372" stroke="white" stroke-miterlimit="10"/>
<path opacity="0.7" d="M171.825 13.132L163.943 19.8131" stroke="white" stroke-miterlimit="10"/>
<path opacity="0.7" d="M172.51 15.2773L165.94 20.9506" stroke="white" stroke-miterlimit="10"/>
<path opacity="0.7" d="M172.648 17.8147L168.746 21.2586" stroke="white" stroke-miterlimit="10"/>
<path opacity="0.7" d="M176.77 21.703L173.866 26.2913" stroke="white" stroke-miterlimit="10"/>
<path opacity="0.7" d="M178.726 21.773L174.537 28.9722" stroke="white" stroke-miterlimit="10"/>
<path opacity="0.7" d="M180.996 22.13L175.943 30.9706" stroke="white" stroke-miterlimit="10"/>
<path opacity="0.7" d="M182.949 23.215L177.262 32.1815" stroke="white" stroke-miterlimit="10"/>
<path opacity="0.7" d="M184.561 24.6569L178.726 33.5255" stroke="white" stroke-miterlimit="10"/>
<path opacity="0.7" d="M186.389 26.2913L180.51 35.1634" stroke="white" stroke-miterlimit="10"/>
<path opacity="0.5" d="M93.6682 115.974L92.6294 123.468L89.3174 124.385H93.6682V115.974Z" fill="white"/>
<path opacity="0.5" d="M202.426 61.0131C204.051 61.0131 205.367 59.6468 205.367 57.9613C205.367 56.2758 204.051 54.9094 202.426 54.9094C200.802 54.9094 199.485 56.2758 199.485 57.9613C199.485 59.6468 200.802 61.0131 202.426 61.0131Z" fill="white"/>
<path opacity="0.5" d="M120.512 32.437C122.136 32.437 123.453 31.0707 123.453 29.3852C123.453 27.6997 122.136 26.3333 120.512 26.3333C118.888 26.3333 117.571 27.6997 117.571 29.3852C117.571 31.0707 118.888 32.437 120.512 32.437Z" fill="white"/>
<path d="M216.666 150.899C216.666 150.225 216.139 149.678 215.489 149.678C214.839 149.678 214.312 150.225 214.312 150.899V165.067C214.312 165.741 214.839 166.288 215.489 166.288C216.139 166.288 216.666 165.741 216.666 165.067V150.899Z" fill="white"/>
<path d="M216.666 136.732C216.666 136.057 216.139 135.511 215.489 135.511C214.839 135.511 214.312 136.057 214.312 136.732V141.618C214.312 142.292 214.839 142.839 215.489 142.839C216.139 142.839 216.666 142.292 216.666 141.618V136.732Z" fill="white"/>
<path d="M66.9526 85.904L65.3371 85.876L70.9123 157.213C70.9123 157.213 84.3089 157.112 88.6496 155.092L92.6328 123.468L81.0272 87.8919L66.9526 85.904Z" fill="white"/>
<path d="M80.8518 88.2138L66.9526 85.9039V84.504V84.0735L67.0066 77.8228C67.3439 77.7353 67.6812 77.0214 68.1871 76.5979C68.5075 76.3319 68.8987 76.5804 69.0505 76.3564L70.3794 74.7325L79.6949 82.5791C79.6072 85.7464 80.4437 87.2409 81.0103 87.8883C81.0355 87.9177 81.0516 87.9543 81.0565 87.9933C81.0614 88.0323 81.0549 88.072 81.0378 88.1071C81.0207 88.1422 80.9938 88.1712 80.9606 88.1902C80.9275 88.2092 80.8895 88.2175 80.8518 88.2138Z" fill="#F9B499"/>
<path d="M80.8518 88.2138L76.9866 87.5699C71.4317 85.4175 70.9156 79.1528 70.9156 79.1528C75.1417 83.979 79.7152 82.5826 79.7152 82.5826C79.658 83.7323 79.7775 84.8842 80.0693 85.9949C80.0997 86.1139 80.1368 86.2259 80.1739 86.3449C80.3556 86.9189 80.6457 87.4495 81.0272 87.9058C81.0482 87.9367 81.0602 87.9732 81.0617 88.011C81.0632 88.0488 81.0542 88.0862 81.0356 88.1188C81.0171 88.1513 80.9899 88.1776 80.9572 88.1945C80.9246 88.2114 80.888 88.2181 80.8518 88.2138Z" fill="#F7A48B"/>
<path d="M74.2007 136.316C74.204 136.33 74.204 136.346 74.2007 136.361C74.2007 137.001 74.1838 137.652 74.1602 138.31C74.0793 140.76 73.8803 143.305 73.5868 145.905C73.5362 146.378 73.4823 146.854 73.4216 147.329C73.0236 150.581 72.4941 153.899 71.8735 157.196C71.8735 157.213 71.8566 157.283 71.8364 157.402C69.5699 169.448 66.1769 181.201 63.9306 188.376C56.803 185.317 49.9527 181.604 43.4614 177.281C42.1999 176.445 41.0532 175.65 40.0313 174.922L43.2893 161.5L46.5575 148.033L47.1174 145.72L46.9454 145.51C46.797 145.321 46.5575 145.023 46.2709 144.673L46.1494 144.519C45.4805 143.617 44.8611 142.676 44.2944 141.702C41.7722 137.256 40.1988 132.301 39.6805 127.17C38.4764 114.26 40.2572 106.059 41.8964 101.531C42.8904 98.8046 44.5279 96.381 46.6587 94.482C51.7975 89.9656 58.0403 87.0125 64.6962 85.9494C64.902 85.9179 65.0571 85.9004 65.1617 85.8864H65.3135C65.3775 85.9634 66.042 86.8209 66.9998 89.1553C69.0673 94.2055 72.4907 106.164 74.0826 132.077C74.2007 133.439 74.2243 134.856 74.2007 136.316Z" fill="#389680"/>
<path opacity="0.5" d="M74.2007 136.316C74.204 136.33 74.204 136.346 74.2007 136.361C74.2007 137.001 74.1838 137.652 74.1602 138.31C74.0793 140.76 73.8803 143.305 73.5868 145.905C73.5362 146.378 73.4823 146.854 73.4216 147.329C73.0236 150.581 72.4941 153.899 71.8735 157.196C71.8735 157.213 71.8566 157.283 71.8364 157.402C69.5699 169.448 66.1769 181.201 63.9306 188.376C56.803 185.317 49.9527 181.604 43.4614 177.281C42.1999 176.445 41.0532 175.65 40.0313 174.922L43.2893 161.5L46.5575 148.033L47.1174 145.72L46.9454 145.51C46.797 145.321 46.5575 145.023 46.2709 144.673L46.1494 144.519C45.4805 143.617 44.8611 142.676 44.2944 141.702C41.7722 137.256 40.1988 132.301 39.6805 127.17C38.4764 114.26 40.2572 106.059 41.8964 101.531C42.8904 98.8046 44.5279 96.381 46.6587 94.482C51.7975 89.9656 58.0403 87.0125 64.6962 85.9494C64.902 85.9179 65.0571 85.9004 65.1617 85.8864H65.3135C65.3775 85.9634 66.042 86.8209 66.9998 89.1553C69.0673 94.2055 72.4907 106.164 74.0826 132.077C74.2007 133.439 74.2243 134.856 74.2007 136.316Z" fill="white"/>
<path opacity="0.5" d="M58.5916 89.3758L60.2779 101.174L62.5512 102.035L60.5714 104.733L66.0116 100.575L62.3016 100.561L58.5916 89.3758Z" fill="#DBE9D8"/>
<path opacity="0.5" d="M60.278 106.329C60.278 106.329 67.0235 127.174 72.4199 134.174C72.4199 134.174 61.9643 109.629 60.278 106.329Z" fill="#DBE9D8"/>
<path opacity="0.5" d="M56.7298 104.733C56.7298 104.733 58.9288 121.924 57.2425 129.624C57.2425 129.624 54.4633 129.274 54.5814 131.535C54.5822 131.553 54.5876 131.571 54.5971 131.586C54.6066 131.602 54.6199 131.615 54.6356 131.623C54.6513 131.632 54.6689 131.636 54.6866 131.635C54.7043 131.634 54.7215 131.629 54.7365 131.619C55.1918 131.325 56.7163 130.569 59.0941 131.724L70.8988 135.035L59.5899 127.524C59.5899 127.524 59.9272 109.241 56.7298 104.733Z" fill="#DBE9D8"/>
<path opacity="0.5" d="M45.4985 104.733C45.4985 104.733 40.1628 117.896 45.4985 132.336V104.733Z" fill="#DBE9D8"/>
<path d="M44.3113 141.691C44.3113 141.691 62.6389 147.823 67.698 145.723C67.698 145.723 69.3844 137.509 72.4199 136.015C72.4199 136.015 69.7216 142.223 70.0589 147.823L52.5206 146.423L52.1833 148.873L46.5609 148.04L47.1242 145.723C47.1242 145.723 44.5373 142.559 44.3113 141.691Z" fill="#DBE9D8"/>
<path opacity="0.6" d="M44.3113 141.691C44.3113 141.691 62.6389 147.823 67.698 145.723C67.698 145.723 69.3844 137.509 72.4199 136.015C72.4199 136.015 69.7216 142.223 70.0589 147.823L52.5206 146.423L52.1833 148.873L46.5609 148.04L47.1242 145.723C47.1242 145.723 44.5373 142.559 44.3113 141.691Z" fill="#DBE9D8"/>
<path d="M139.538 113.175L120.435 123.583L112.562 127.87C106.829 131.02 96.036 118.071 96.036 118.071C95.3614 121.921 95.6987 131.02 95.6987 131.02L98.4205 179.741H95.6987V173.372C91.6514 168.122 89.6277 158.322 89.6277 158.322C85.5804 148.523 81.0339 87.8918 81.0339 87.8918C90.5181 90.3417 97.5605 94.118 102.647 97.8069C110.475 103.501 113.574 108.975 113.574 108.975L132.799 99.8753L134.701 103.624L139.538 113.175Z" fill="#389680"/>
<path opacity="0.5" d="M139.538 113.175L120.435 123.583L112.562 127.87C106.829 131.02 96.036 118.071 96.036 118.071C95.3614 121.921 95.6987 131.02 95.6987 131.02L98.4205 179.741H95.6987V173.372C91.6514 168.122 89.6277 158.322 89.6277 158.322C85.5804 148.523 81.0339 87.8918 81.0339 87.8918C90.5181 90.3417 97.5605 94.118 102.647 97.8069C110.475 103.501 113.574 108.975 113.574 108.975L132.799 99.8753L134.701 103.624L139.538 113.175Z" fill="white"/>
<path opacity="0.5" d="M134.695 103.624L123.123 109.496C120.966 110.551 118.645 111.197 116.269 111.404C115.557 111.471 114.882 111.764 114.337 112.244C113.905 112.641 113.617 113.179 113.52 113.77C113.207 115.324 111.547 113.885 111.547 113.885L102.64 97.8174C110.468 103.512 113.568 108.985 113.568 108.985L132.792 99.8858L134.695 103.624Z" fill="#DBE9D8"/>
<path opacity="0.5" d="M120.428 123.587L112.556 127.874C106.822 131.024 96.0292 118.074 96.0292 118.074C96.0292 118.074 96.7038 104.425 95.3547 100.225C95.3547 100.225 99.402 102.136 98.5588 114.48C98.5588 114.48 97.9079 116.825 101.018 120.251C101.39 120.871 101.844 121.433 102.367 121.921C103.673 123.217 105.236 124.201 106.947 124.805C108.658 125.41 110.475 125.62 112.272 125.421C115.043 125.095 117.776 124.481 120.428 123.587Z" fill="#DBE9D8"/>
<path opacity="0.5" d="M86.319 141.362C86.319 141.362 89.9684 153.342 97.213 158.28L98.4138 179.745H95.6919V173.372C95.6919 173.372 89.4253 167.8 86.319 141.362Z" fill="#DBE9D8"/>
<path opacity="0.5" d="M85.7322 136.847C85.7322 136.847 88.2719 124.724 90.2955 108.275C90.2955 108.275 90.0628 131.601 85.9615 138.664L85.7322 136.847Z" fill="#DBE9D8"/>
<path opacity="0.5" d="M88.9464 90.4257C88.9464 90.4257 90.0291 99.1753 89.3174 100.925H86.6192V102.276H87.4152L90.282 105.276L88.9329 101.975C88.9329 101.975 90.9566 102.675 90.6193 99.1753L89.8233 90.7757L88.9464 90.4257Z" fill="#DBE9D8"/>
<path d="M86.3696 97.8944L85.7423 120.521H85.405L86.0324 97.8944C86.0319 97.3021 85.9936 96.7105 85.9177 96.1235C85.1082 89.9533 83.3814 87.6539 82.0761 86.8139C81.5131 86.434 80.8424 86.2637 80.1739 86.3309C80.1368 86.2259 80.0997 86.1139 80.0693 85.981C80.8293 85.8786 81.5995 86.061 82.2414 86.4954C83.6141 87.3704 85.4219 89.7398 86.2516 96.064C86.3308 96.6706 86.3703 97.2822 86.3696 97.8944Z" fill="#2F2E41"/>
<path d="M86.2482 129.624C87.9246 129.624 89.2837 127.509 89.2837 124.899C89.2837 122.29 87.9246 120.174 86.2482 120.174C84.5717 120.174 83.2127 122.29 83.2127 124.899C83.2127 127.509 84.5717 129.624 86.2482 129.624Z" fill="#389680"/>
<path d="M66.9695 84.077V84.5075C66.3759 84.8295 61.3235 87.8499 61.6439 96.1935H61.3067C60.993 88.1333 65.8633 84.7385 66.9695 84.077Z" fill="#2F2E41"/>
<path d="M51.6032 118.543C51.5661 117.742 50.8275 98.9093 59.6371 96.3369C60.6264 96.0528 61.6691 96.0348 62.6669 96.2846C63.6648 96.5345 64.5849 97.0439 65.3404 97.7649C68.0994 100.344 71.3035 106.042 70.8886 118.54H70.5513C70.9628 106.175 67.8228 100.565 65.1145 98.0344C64.3988 97.3535 63.5282 96.8723 62.5843 96.636C61.6404 96.3997 60.6542 96.416 59.718 96.6834C51.1748 99.1718 51.9405 118.333 51.9405 118.543H51.6032Z" fill="#2F2E41"/>
<path d="M70.7335 121.224C71.4786 121.224 72.0826 120.597 72.0826 119.824C72.0826 119.051 71.4786 118.424 70.7335 118.424C69.9884 118.424 69.3844 119.051 69.3844 119.824C69.3844 120.597 69.9884 121.224 70.7335 121.224Z" fill="#389680"/>
<path d="M51.8461 121.224C52.5911 121.224 53.1952 120.597 53.1952 119.824C53.1952 119.051 52.5911 118.424 51.8461 118.424C51.101 118.424 50.4969 119.051 50.4969 119.824C50.4969 120.597 51.101 121.224 51.8461 121.224Z" fill="#389680"/>
<path opacity="0.5" d="M60.278 153.192L58.3656 168.241L47.4615 163.912L43.4681 177.274C42.2067 176.438 41.06 175.643 40.038 174.915L43.2961 161.493L56.9052 166.362L60.278 153.192Z" fill="#DBE9D8"/>
<path opacity="0.5" d="M46.5137 151.27C47.3569 151.921 48.4834 152.037 49.4885 152.254C52.6184 152.789 55.7922 152.915 58.9491 153.199C58.4196 153.223 57.8901 153.223 57.3605 153.237C54.7062 153.22 48.4801 153.069 46.5137 151.27Z" fill="white"/>
<path d="M96.1236 195.333V195.421H93.6716C93.6716 195.375 93.648 195.33 93.6379 195.284C89.7626 195.193 87.2735 195.032 87.2735 195.032C83.7862 194.55 80.3314 193.841 76.9293 192.911C76.1333 192.698 75.3474 192.474 74.5683 192.236C70.9812 191.156 67.4526 189.877 63.9981 188.404C67.2314 178.246 69.8504 167.888 71.8398 157.392C71.86 157.273 71.8735 157.203 71.8769 157.185C72.6931 157.161 73.4722 157.136 74.2108 157.105C76.2142 157.024 77.9411 156.919 79.4352 156.8H79.6308H79.6612C86.3291 156.251 88.1504 155.4 88.5518 155.169C88.5844 155.152 88.6149 155.131 88.6429 155.106C89.0587 157.496 89.6335 159.854 90.363 162.162C90.7711 163.467 91.2062 164.664 91.6446 165.749L91.6649 165.798C92.2281 167.198 92.7947 168.416 93.3175 169.438C93.3175 169.462 93.3411 169.483 93.3512 169.504C93.9929 170.767 94.7187 171.983 95.5233 173.141L95.6784 173.354L95.8032 179.727L96.1236 195.333Z" fill="#2F2E41"/>
<path opacity="0.2" d="M74.2007 157.115L75.108 181.071C75.108 181.071 79.1553 178.048 80.1671 174.485L79.6477 156.79L74.2007 157.115Z" fill="black"/>
<path opacity="0.2" d="M76.9259 192.911C76.1299 192.698 75.344 192.474 74.5649 192.236L75.7184 181.736L76.9259 192.911Z" fill="black"/>
<path opacity="0.2" d="M96.1236 195.333V195.421H93.6716C93.6716 195.375 93.648 195.33 93.6379 195.284C92.4541 190.384 90.7778 167.744 90.3832 162.256C90.3832 162.221 90.3832 162.183 90.3832 162.148C90.3326 161.448 90.3056 161.056 90.3056 161.056C90.6682 162.641 91.1186 164.204 91.6547 165.735L91.6749 165.784C93.4726 170.824 95.4862 173.134 95.675 173.354L95.7998 179.727L96.1236 195.333Z" fill="black"/>
<path d="M147.545 92.2526L143.922 94.2755C143.922 94.2755 147.632 95.3255 145.609 96.7254C146.07 97.1544 146.394 97.7197 146.537 98.3453C146.68 98.9709 146.635 99.627 146.408 100.225C146.687 100.603 146.862 101.052 146.914 101.525C146.965 101.998 146.892 102.477 146.702 102.91C146.486 103.483 146.111 103.977 145.626 104.331C145.194 104.642 144.641 104.866 144.276 104.355C144.246 104.313 144.205 104.279 144.158 104.259C144.111 104.238 144.06 104.23 144.009 104.237C143.959 104.243 143.911 104.263 143.87 104.295C143.829 104.327 143.797 104.369 143.777 104.418C143.14 105.986 141.255 109.668 137.669 109.517L133.622 101.534L135.922 97.8489C135.922 97.8489 138.195 93.5756 142.243 91.8256L147.302 89.7258C147.302 89.7258 148.89 89.2533 149.501 89.5438C149.838 89.7013 149.869 90.0827 149.214 90.8807C148.743 91.4398 148.177 91.9048 147.545 92.2526Z" fill="#F9B499"/>
<path d="M147.545 92.2526L143.922 94.2755C141.561 94.6255 138.526 96.7254 138.526 96.7254C139.756 95.0395 141.442 93.7723 143.369 93.0856C147.535 91.1992 149.494 89.5438 149.494 89.5438C149.831 89.7013 149.862 90.0827 149.207 90.8807C148.738 91.4392 148.175 91.9041 147.545 92.2526Z" fill="#F7A48B"/>
<path d="M138.863 101.975C138.863 101.975 141.656 102.245 142.789 99.4868C142.789 99.4868 144.934 96.0255 145.609 96.7254C145.609 96.7254 145.342 97.6249 144.128 99.8018C144.128 99.8018 143.15 100.939 143.872 101.982C143.872 101.982 144.981 102.682 145.97 100.232C145.97 100.232 146.29 101.723 144.664 103.032C144.447 103.215 144.184 103.33 143.906 103.364C143.628 103.399 143.346 103.352 143.093 103.228C142.701 103.025 142.364 102.605 142.418 101.762C141.943 102.222 141.327 102.496 140.678 102.535C140.029 102.574 139.387 102.376 138.863 101.975Z" fill="#F7A48B"/>
<path d="M78.1535 82.7261C84.1143 82.7261 88.9464 76.5367 88.9464 68.9018C88.9464 61.2668 84.1143 55.0774 78.1535 55.0774C72.1928 55.0774 67.3607 61.2668 67.3607 68.9018C67.3607 76.5367 72.1928 82.7261 78.1535 82.7261Z" fill="#F9B499"/>
<path d="M93.2804 55.7949C93.2165 56.9964 92.8925 58.1675 92.3326 59.2212C88.9363 65.5839 80.7202 62.6301 80.1907 62.4376H80.1637C80.501 63.8375 82.1874 64.8874 82.1874 64.8874C74.0928 66.9873 71.8027 61.7131 71.8027 61.7131C71.8769 65.5384 69.924 70.2632 69.924 70.2632L61.0604 69.5632C57.8091 67.2498 57.9035 62.4271 57.9035 62.4271C56.5544 52.9775 67.3472 53.1525 67.3472 53.1525C67.3472 53.1525 70.0454 42.478 78.8146 47.7278C81.0271 49.0507 82.9463 50.0867 84.3729 50.4891C85.3771 50.7688 86.4366 50.7518 87.432 50.4401C89.8199 49.7052 90.309 50.5416 90.1876 51.4026C90.1781 51.4715 90.1867 51.5417 90.2126 51.6059C90.2385 51.6701 90.2807 51.7258 90.3347 51.7671C90.3886 51.8084 90.4524 51.8337 90.5191 51.8404C90.5859 51.8471 90.6531 51.8349 90.7137 51.8051C92.2652 51.1051 92.9026 52.505 93.159 53.9435C93.2717 54.5532 93.3125 55.1749 93.2804 55.7949Z" fill="#2F2E41"/>
<path opacity="0.2" d="M93.2804 55.7949C93.2165 56.9964 92.8926 58.1675 92.3327 59.2213C88.9363 65.5839 80.7203 62.6301 80.1907 62.4376H80.1638C80.1638 62.4376 78.1401 59.2878 82.5247 59.9877C82.5382 59.9772 90.535 61.7656 93.2804 55.7949Z" fill="black"/>
<path opacity="0.2" d="M71.8162 61.7026C71.8162 61.7026 71.2631 59.6447 72.828 60.1907C73.3536 60.3856 73.8028 60.7546 74.1063 61.2406C74.8179 62.3291 76.5583 64.688 78.7034 65.3774C78.7067 65.3704 74.5852 66.2279 71.8162 61.7026Z" fill="black"/>
<path opacity="0.2" d="M58.1531 64.597C58.1531 64.597 61.1684 64.8525 62.7468 63.288C62.7468 63.288 67.698 59.4382 66.8549 67.2358C66.8549 67.2358 63.5563 65.8359 61.0739 69.5632C61.0739 69.5632 58.7265 68.1633 58.1531 64.597Z" fill="black"/>
<path d="M65.3371 78.1763C68.1312 78.1763 70.3962 75.6692 70.3962 72.5766C70.3962 69.484 68.1312 66.9769 65.3371 66.9769C62.543 66.9769 60.278 69.484 60.278 72.5766C60.278 75.6692 62.543 78.1763 65.3371 78.1763Z" fill="#F9B499"/>
<path d="M89.2837 150.973C88.9464 152.723 70.0421 146.199 70.0421 146.199C70.2179 143.169 70.8448 140.186 71.9005 137.355C76.2041 133.985 85.6681 138.45 87.8267 139.539L88.2179 139.745C88.2257 139.749 88.2327 139.754 88.2386 139.76C88.2445 139.766 88.2492 139.774 88.2523 139.782C88.2554 139.79 88.257 139.799 88.2569 139.807C88.2568 139.816 88.255 139.825 88.2516 139.833C87.513 142.213 82.5382 141.523 82.5382 141.523C79.84 140.823 79.6612 142.444 79.6612 142.444L84.2246 146.073C85.4716 146.907 86.6524 147.844 87.7558 148.873C89.2837 150.343 89.2837 150.973 89.2837 150.973Z" fill="#F9B499"/>
<path d="M89.2837 150.973C88.9464 152.723 70.0421 146.199 70.0421 146.199C70.0421 146.199 71.8567 144.733 75.7927 146.773C77.1418 147.473 86.9228 152.023 87.7558 148.873C89.2837 150.343 89.2837 150.973 89.2837 150.973Z" fill="#F7A48B"/>
<path d="M78.8281 145.023C80.9428 146.651 84.4168 149.573 87.1622 148.33C86.8296 148.564 86.4542 148.724 86.0593 148.799C83.3173 149.149 80.6224 146.962 78.8281 145.023Z" fill="#F7A48B"/>
<path d="M88.2516 139.833C87.513 142.213 82.5382 141.523 82.5382 141.523C79.84 140.823 79.6612 142.444 79.6612 142.444C79.6612 142.444 78.1536 139.773 82.2009 140.123C82.2009 140.123 86.3663 141.058 87.8233 139.542L88.2145 139.749C88.23 139.755 88.2425 139.767 88.2494 139.783C88.2564 139.799 88.2571 139.817 88.2516 139.833Z" fill="#F7A48B"/>
<path d="M70.7335 142.223C70.7335 142.223 73.1518 136.249 80.7101 136.788C80.7101 136.788 75.4284 134.937 71.9005 137.355C71.9005 137.355 70.575 140.676 70.7335 142.223Z" fill="#F7A48B"/>
<path d="M84.8991 129.624C86.5755 129.624 87.9346 127.509 87.9346 124.899C87.9346 122.29 86.5755 120.174 84.8991 120.174C83.2226 120.174 81.8636 122.29 81.8636 124.899C81.8636 127.509 83.2226 129.624 84.8991 129.624Z" fill="#E6E6E6"/>
</svg>
