<svg width="285" height="255" viewBox="0 0 285 255" fill="none" xmlns="http://www.w3.org/2000/svg">
<path d="M128.721 204.709C131.328 204.709 133.441 202.312 133.441 199.355C133.441 196.397 131.328 194 128.721 194C126.113 194 124 196.397 124 199.355C124 202.312 126.113 204.709 128.721 204.709Z" fill="#2E3135"/>
<path d="M69.9234 234.104L69.8806 232.562L80.8854 231.949L82.7848 236.923L80.7373 238.913L69.4855 237.916L69.9234 234.104Z" fill="#F9B499"/>
<path d="M179.319 30.1613H79.7482C77.5637 30.1613 75.7928 32.1881 75.7928 34.6884V202.993C75.7928 205.494 77.5637 207.521 79.7482 207.521H179.319C181.503 207.521 183.274 205.494 183.274 202.993V34.6884C183.274 32.1881 181.503 30.1613 179.319 30.1613Z" fill="#3F4347"/>
<path d="M180.096 42.5722H78.7826V189.766H180.096V42.5722Z" fill="#EEF8F9"/>
<path d="M140.614 34.8703H118.264C117.519 34.8703 116.915 35.5618 116.915 36.4148V37.1767C116.915 38.0297 117.519 38.7212 118.264 38.7212H140.614C141.359 38.7212 141.963 38.0297 141.963 37.1767V36.4148C141.963 35.5618 141.359 34.8703 140.614 34.8703Z" fill="#2E3135"/>
<path d="M67.1549 245.541L104.706 247.199C104.706 247.199 105.581 241.897 97.8354 238.417L84.8291 231.949H80.8788C80.8788 231.949 80.4608 235.056 78.3967 236.326C77.5278 236.845 76.5541 237.098 75.5723 237.059C74.5906 237.02 73.635 236.69 72.8005 236.102L69.93 234.104L67.1549 245.541Z" fill="#389680"/>
<path opacity="0.2" d="M67.1549 245.541L104.706 247.199C104.706 247.199 105.581 241.897 97.8354 238.417L84.8291 231.949H80.8788C80.8788 231.949 80.4608 235.056 78.3967 236.326C77.5278 236.845 76.5541 237.098 75.5723 237.059C74.5906 237.02 73.635 236.69 72.8005 236.102L69.93 234.104L67.1549 245.541Z" fill="#389680"/>
<path d="M39.0881 234.933L39.042 233.391L50.0403 233.764L51.9463 237.752L49.902 239.742L38.647 238.745L39.0881 234.933Z" fill="#F9B499"/>
<path d="M60.706 123.163L72.2277 123.447L74.8875 69.4884L70.6509 63.6856C70.6509 63.6856 70.5883 63.4018 68.7185 62.6326L55.7451 62.0276C55.7451 62.0276 62.5067 91.6542 60.9529 111.654L60.706 123.163Z" fill="#E6E6E6"/>
<path d="M36.3097 233.275L56.6241 234.104L63.9321 152.375L66.8553 232.778L84.8291 231.949L81.0632 123.723L53.263 123.2L41.1752 159.843L36.3097 233.275Z" fill="#2F2E41"/>
<path opacity="0.2" d="M63.9321 152.375L64.3699 147.405L69.1926 146.243L68.8996 180.06L72.9914 183.876L68.1688 186.692L70.6542 189.511L68.1688 191.998L66.8553 232.778L63.9321 152.375Z" fill="black"/>
<path opacity="0.2" d="M36.3097 233.275L38.0972 233.383L42.301 190.504L46.541 186.031L43.6178 181.553L49.0263 179.563L43.7626 169.119L44.2004 154.862L41.1752 159.843L36.3097 233.275Z" fill="black"/>
<path d="M69.13 64.1337C68.8831 67.121 67.7803 68.6146 67.201 69.1822C66.9639 69.428 66.653 69.5616 66.3319 69.5556C65.5748 69.5332 64.6662 69.0926 63.7708 68.4914C62.3534 67.4905 61.0298 66.3282 59.8205 65.0224C57.187 62.5355 55.8702 62.8678 55.8702 62.8678C55.8043 62.3849 55.8664 61.8905 56.0487 61.4477C56.231 61.0049 56.5252 60.6336 56.894 60.3809L57.1409 51.3219L57.6248 50.4332H57.7466L60.4328 50.1232L64.6399 51.109L66.6545 58.9955L66.8323 61.0568L68.3268 62.2218C68.5983 62.4308 68.8159 62.7181 68.9571 63.0541C69.0983 63.3902 69.158 63.7628 69.13 64.1337Z" fill="#F9B499"/>
<path d="M68.3498 62.1994C68.3498 62.1994 62.138 61.3368 61.7397 54.5668C61.7397 54.5668 63.3461 58.0508 66.7072 59.0478L66.8553 61.0381L68.3498 62.1994Z" fill="#F7A48B"/>
<path d="M63.7807 68.4802C62.3633 67.4793 61.0397 66.3169 59.8304 65.0112C57.1969 62.5243 55.8801 62.8566 55.8801 62.8566C55.8141 62.3736 55.8762 61.8793 56.0585 61.4365C56.2408 60.9937 56.5351 60.6223 56.9039 60.3697L57.1508 51.3107L57.6347 50.422H57.7565L58.0857 51.4302C58.0857 51.4302 57.6478 59.3876 58.8165 61.3779L63.7807 68.4802Z" fill="#F7A48B"/>
<path d="M38.5153 159.503L44.7996 120.549C44.7996 120.549 36.1781 121.542 35.7402 111.262L36.1781 82.4197C36.1781 82.4197 33.8375 67.3338 55.7616 62.0276L55.9064 62.8566C55.9064 62.8566 58.8297 74.8058 59.8567 86.0642C59.8567 86.0642 61.901 105.627 60.5875 125.19L58.54 142.431C58.54 142.431 57.0619 162.987 38.5153 159.503Z" fill="#389680"/>
<path opacity="0.5" d="M38.5153 159.503L44.7996 120.549C44.7996 120.549 36.1781 121.542 35.7402 111.262L36.1781 82.4197C36.1781 82.4197 33.8375 67.3338 55.7616 62.0276L55.9064 62.8566C55.9064 62.8566 58.8297 74.8058 59.8567 86.0642C59.8567 86.0642 61.901 105.627 60.5875 125.19L58.54 142.431C58.54 142.431 57.0619 162.987 38.5153 159.503Z" fill="white"/>
<path opacity="0.5" d="M44.7864 120.549C44.7864 120.549 47.7096 120.713 55.7484 113.252C55.7484 113.252 53.7008 122.214 51.6566 124.526L44.2959 123.6L44.7864 120.549Z" fill="white"/>
<path d="M41.4155 141.21L45.8003 141.382C46.7063 141.424 47.6034 141.163 48.38 140.632C49.1566 140.101 49.7786 139.323 50.1686 138.394C50.4623 137.671 50.6672 136.906 50.7776 136.12L51.6566 124.515L44.2959 123.6L41.4155 141.21Z" fill="#389680"/>
<path d="M37.1985 116.733C37.1985 116.733 36.7344 113.913 38.2947 110.385C39.2341 108.301 40.6395 106.535 42.3701 105.261C44.8571 103.41 47.5319 101.905 50.3365 100.78L53.1313 99.6602C53.1313 99.6602 55.0308 106.124 59.5604 106.124C59.5604 106.124 54.7378 101.815 55.3205 97.1621L41.8763 103.137C41.8763 103.137 35.7402 105.127 35.7402 111.258C35.727 111.277 36.1747 115.609 37.1985 116.733Z" fill="#DBE9D8"/>
<path opacity="0.6" d="M37.1985 116.733C37.1985 116.733 36.7344 113.913 38.2947 110.385C39.2341 108.301 40.6395 106.535 42.3701 105.261C44.8571 103.41 47.5319 101.905 50.3365 100.78L53.1313 99.6602C53.1313 99.6602 55.0308 106.124 59.5604 106.124C59.5604 106.124 54.7378 101.815 55.3205 97.1621L41.8763 103.137C41.8763 103.137 35.7402 105.127 35.7402 111.258C35.727 111.277 36.1747 115.609 37.1985 116.733Z" fill="#DBE9D8"/>
<path d="M55.7484 62.0276C52.476 62.757 49.3004 63.9632 46.3006 65.6161L52.8252 77.6102L56.7755 77.2778L53.7074 82.7483L60.9496 104.978C60.9496 104.978 61.4467 87.2255 55.7484 62.0276Z" fill="#389680"/>
<path d="M70.6542 63.6856C70.6542 63.6856 84.5361 63.8499 87.4593 73.6333L94.9419 93.9432C96.4013 97.8665 97.234 102.053 97.4009 106.307C97.5458 110.254 97.0717 114.291 94.7674 115.243C94.7674 115.243 93.0128 117.73 84.0983 116.404L84.2465 161.161C84.2465 161.161 72.2606 160.004 71.9676 142.763L72.5536 107.618C72.5536 107.618 72.1158 75.6199 70.6542 63.6856Z" fill="#3B9684"/>
<path opacity="0.5" d="M70.6542 63.6856C70.6542 63.6856 84.5361 63.8499 87.4593 73.6333L94.9419 93.9432C96.4013 97.8665 97.234 102.053 97.4009 106.307C97.5458 110.254 97.0717 114.291 94.7674 115.243C94.7674 115.243 93.0128 117.73 84.0983 116.404L84.2465 161.161C84.2465 161.161 72.2606 160.004 71.9676 142.763L72.5536 107.618C72.5536 107.618 72.1158 75.6199 70.6542 63.6856Z" fill="white"/>
<path d="M70.6542 63.6856C70.6542 63.6856 76.313 63.8275 78.7457 65.3323L78.9827 76.1202L75.1838 76.2845L77.9622 77.9425C77.9622 77.9425 73.9724 99.6004 72.6063 110.235L71.9808 84.0963C71.9808 84.0963 71.2401 69.3204 70.6542 63.6856Z" fill="#389680"/>
<path d="M55.304 97.1733L56.7656 96.8409L63.9288 103.305C63.9288 103.305 62.4672 106.789 59.544 106.124C59.5473 106.124 54.5765 101.482 55.304 97.1733Z" fill="#F9B499"/>
<path d="M77.6692 109.44L82.347 84.4063L98.5662 76.1202L90.8204 103.473L77.6692 109.44Z" fill="#CCCCCC"/>
<path d="M72.8104 80.2838L72.6622 72.655C71.9676 60.3772 66.8224 60.2577 66.717 60.2577V59.5108C66.9606 59.5108 72.5964 59.4847 73.3371 72.6251L73.4852 80.2651L72.8104 80.2838Z" fill="#2F2E41"/>
<path d="M53.4408 65.7207L52.7824 65.6049C52.7824 65.4705 53.2861 62.2442 56.7327 60.0336L57.0619 60.6833C53.8918 62.7334 53.4474 65.7207 53.4408 65.7207Z" fill="#2F2E41"/>
<path d="M45.0003 96.7849C43.4466 95.1456 43.6836 92.0911 43.9469 90.4145C44.0523 89.7717 44.2235 89.1451 44.4572 88.5474L47.884 79.7125L48.4865 80.0112L45.0596 88.8723C44.8456 89.4156 44.6897 89.986 44.5954 90.5713C44.3452 92.0948 44.1247 94.8618 45.448 96.2547L45.0003 96.7849Z" fill="#2F2E41"/>
<path d="M53.3684 97.6923L53.1577 96.9828C56.1797 95.8439 55.4192 84.9813 54.8728 80.8925L55.5312 80.7804C55.6069 81.404 57.5293 96.1202 53.3684 97.6923Z" fill="#2F2E41"/>
<path d="M44.1115 94.8917C44.2163 94.7938 44.3459 94.7363 44.4815 94.7275C44.617 94.7188 44.7515 94.7593 44.8654 94.8432L46.1064 95.7543C46.209 95.8292 46.2954 95.9291 46.3594 96.0469C46.4234 96.1646 46.4633 96.2971 46.4763 96.4346C46.4892 96.5722 46.4748 96.7112 46.4342 96.8416C46.3936 96.972 46.3277 97.0905 46.2414 97.1882C46.1636 97.2764 46.071 97.346 45.9691 97.3928C45.8671 97.4396 45.7579 97.4626 45.648 97.4605C45.538 97.4584 45.4295 97.4313 45.329 97.3806C45.2285 97.33 45.138 97.2569 45.0629 97.1658L44.0556 95.941C43.9964 95.8691 43.9507 95.7843 43.9213 95.6918C43.892 95.5993 43.8795 95.5009 43.8848 95.4027C43.89 95.3045 43.9128 95.2086 43.9518 95.1207C43.9908 95.0329 44.0451 94.955 44.1115 94.8917Z" fill="#389680"/>
<path d="M50.4419 98.4205C50.4722 98.5125 50.5188 98.5966 50.5787 98.6677C50.6386 98.7387 50.7106 98.7951 50.7904 98.8335C50.8702 98.872 50.956 98.8916 51.0426 98.8912C51.1293 98.8908 51.215 98.8704 51.2945 98.8312L53.5198 97.7371C53.5805 97.7085 53.635 97.6651 53.6794 97.6101C53.7238 97.555 53.757 97.4896 53.7768 97.4185C53.7965 97.3473 53.8023 97.2721 53.7938 97.1982C53.7852 97.1242 53.7625 97.0532 53.7272 96.9903C53.6778 96.8947 53.602 96.8202 53.5116 96.7784C53.4211 96.7365 53.3211 96.7296 53.2268 96.7588L50.8797 97.4608C50.7923 97.4856 50.7106 97.5313 50.6399 97.5947C50.5693 97.6581 50.5113 97.7379 50.4699 97.8286C50.4285 97.9194 50.4046 98.0191 50.3998 98.1211C50.3949 98.2232 50.4093 98.3252 50.4419 98.4205Z" fill="#389680"/>
<path d="M73.2811 103.17L74.7065 103.391C74.8645 103.413 75.0357 103.435 75.1838 103.473C74.8619 103.527 74.5347 103.527 74.2127 103.473C73.8888 103.428 73.5738 103.322 73.2811 103.159V103.17Z" fill="#F7A48B"/>
<path d="M77.6692 123.697L84.1971 123.809V141.669C84.1971 141.669 80.576 142.293 78.6403 139.578C78.001 138.659 77.6583 137.519 77.6692 136.348V123.697Z" fill="#389680"/>
<path d="M35.2859 246.37L73.1428 248.693C73.1428 248.693 74.0185 243.387 66.2726 239.907L53.1577 234.13L50.0369 233.757C49.848 234.482 49.5315 235.156 49.1066 235.739C48.6817 236.321 48.1572 236.801 47.5647 237.147C46.6958 237.667 45.7221 237.92 44.7403 237.88C43.7585 237.841 42.803 237.511 41.9685 236.923L39.0979 234.925L35.2859 246.37Z" fill="#389680"/>
<path d="M67.5861 59.0441C71.6222 59.0441 74.8941 53.8112 74.8941 47.3562C74.8941 40.9012 71.6222 35.6684 67.5861 35.6684C63.55 35.6684 60.2781 40.9012 60.2781 47.3562C60.2781 53.8112 63.55 59.0441 67.5861 59.0441Z" fill="#F9B499"/>
<path d="M78.4 41.6393C78.4 41.6393 78.2519 47.1098 72.8466 42.7969L70.3612 39.9813C70.3612 39.9813 67.0001 43.1292 64.8077 41.6393C64.8077 41.6393 62.6318 46.9567 54.7312 45.4556V45.4257C54.5238 44.7498 51.5348 34.5146 60.5809 34.5146C60.5809 34.5146 60.5809 29.3727 64.8176 30.3697C64.8176 30.3697 67.1549 28.7117 69.7884 33.8499C70.0308 34.2955 70.3779 34.6557 70.7908 34.8898C71.2037 35.124 71.6659 35.2229 72.1256 35.1755C72.1256 35.1755 75.7797 34.3465 75.6315 39.4847C75.6216 39.481 77.0833 41.8223 78.4 41.6393Z" fill="#2F2E41"/>
<path opacity="0.2" d="M70.3612 39.9813C70.3612 39.9813 67.0001 43.1292 64.8077 41.6393C64.8077 41.6393 62.6318 46.9567 54.7312 45.4556C54.7301 45.4469 54.7301 45.4381 54.7312 45.4294C54.6884 44.8357 54.1321 35.3659 62.6318 36.0082C62.6318 36.0082 64.3864 33.5213 65.9928 33.0209C65.9928 33.0209 64.0934 36.9978 65.4102 37.3301C65.4102 37.3301 68.0437 34.6789 70.5258 37.9948C70.5093 37.991 71.5298 38.8349 70.3612 39.9813Z" fill="black"/>
<path d="M58.0857 51.419C60.0219 51.419 61.5915 49.3409 61.5915 46.7774C61.5915 44.214 60.0219 42.1359 58.0857 42.1359C56.1494 42.1359 54.5798 44.214 54.5798 46.7774C54.5798 49.3409 56.1494 51.419 58.0857 51.419Z" fill="#F9B499"/>
<path d="M86.9162 105.575L88.8485 100.904L92.7955 101.4L91.3339 104.716L86.9162 105.575Z" fill="#DBE9D8"/>
<path opacity="0.5" d="M86.9162 105.575L88.8485 100.904L92.7955 101.4L91.3339 104.716L86.9162 105.575Z" fill="white"/>
<path d="M97.2527 103.809C97.2527 103.809 92.282 101.322 88.9209 101.486C88.9209 101.486 86.4388 107.954 83.3675 108.45C83.3675 108.45 87.6075 104.137 87.3178 98.5026L92.4301 99.3278C92.4795 99.1561 97.5457 99.8245 97.2527 103.809Z" fill="#DBE9D8"/>
<path opacity="0.6" d="M97.2527 103.809C97.2527 103.809 92.282 101.322 88.9209 101.486C88.9209 101.486 86.4388 107.954 83.3675 108.45C83.3675 108.45 87.6075 104.137 87.3178 98.5026L92.4301 99.3278C92.4795 99.1561 97.5457 99.8245 97.2527 103.809Z" fill="#DBE9D8"/>
<path d="M55.8208 100.571L77.6692 109.44L82.347 84.4063L62.4705 74.1299L55.8208 100.571Z" fill="#E1E1E2"/>
<path d="M87.0676 101.568C87.0676 101.568 86.508 104.615 83.9897 107.599C83.9897 107.599 82.1989 105.945 80.1546 105.448L75.1838 105.116C75.1838 105.116 72.4384 105.385 72.1256 103.723C72.1127 103.651 72.1144 103.576 72.1304 103.505C72.1464 103.434 72.1764 103.367 72.2182 103.311C72.26 103.255 72.3124 103.21 72.3716 103.179C72.4308 103.149 72.4953 103.135 72.5602 103.137L73.2811 103.155C73.2811 103.155 70.0682 101.288 70.6476 99.6453C70.6476 99.6453 70.9406 98.9806 71.8162 100.142C71.8162 100.142 73.0638 101.068 73.9757 100.851C73.9757 100.851 69.6238 97.9873 70.6476 96.1613C70.6476 96.1613 71.5232 95.5004 73.2811 97.3226C73.965 97.9515 74.7615 98.4038 75.6151 98.6483C75.4801 98.5512 71.0689 95.3772 71.2006 92.4981C71.2085 92.3397 71.2521 92.1863 71.3273 92.0525C71.4025 91.9187 71.5067 91.8091 71.6299 91.7341C71.7532 91.6592 71.8914 91.6214 72.0312 91.6244C72.171 91.6274 72.3078 91.6711 72.4285 91.7513C72.5141 91.8111 72.6095 91.8783 72.7083 91.9567C73.2926 92.4284 73.8262 92.9761 74.2983 93.5885C74.7411 94.1464 75.2616 94.6181 75.8389 94.9851C77.1293 95.7991 79.3612 96.8111 81.4648 95.8365C81.4648 95.8365 82.7815 95.1718 82.4886 94.0105C82.4886 94.0105 82.0902 91.6617 82.6466 90.2315C82.7435 89.9659 82.8921 89.7285 83.0811 89.537C83.1348 89.4829 83.2005 89.4464 83.271 89.4312C83.3416 89.416 83.4145 89.4227 83.4819 89.4506C83.5494 89.4785 83.609 89.5267 83.6543 89.5898C83.6996 89.653 83.7291 89.729 83.7395 89.8096C83.9041 90.9298 84.3979 93.2674 85.7146 94.5108C85.7146 94.5108 87.7589 95.5041 86.5903 100.146C86.5391 100.41 86.5571 100.685 86.6418 100.938C86.7266 101.19 86.8746 101.41 87.0676 101.568Z" fill="#F9B499"/>
<path d="M83.2227 95.183C83.0778 97.1732 81.1751 97.3376 81.1751 97.3376C74.8908 97.5056 72.6523 91.9791 72.6523 91.9791H72.7116C73.2959 92.4508 73.8295 92.9984 74.3016 93.6109C74.7444 94.1688 75.2649 94.6405 75.8422 95.0075C77.1326 95.8215 79.3645 96.8334 81.4681 95.8588C81.4681 95.8588 82.7848 95.1942 82.4918 94.0328C82.4918 94.0328 82.0935 91.6841 82.6499 90.2539H82.7289C82.3832 91.9081 83.2227 95.183 83.2227 95.183Z" fill="#F7A48B"/>
<path d="M47.4034 79.6004L49.0099 80.0971C49.0099 80.0971 50.9258 72.3077 52.6705 72.8155C52.6705 72.8155 54.1321 72.4832 54.2802 80.9373L55.8867 80.773C55.8867 80.773 56.1797 72.9798 53.2532 71.1576L53.8391 65.6871L52.5224 65.3547L51.9364 70.9895C51.9364 70.9895 49.4642 71.3219 47.4034 79.6004Z" fill="#2F2E41"/>
<path opacity="0.2" d="M47.4034 79.6004L49.0099 80.0971C49.0099 80.0971 50.9258 72.3077 52.6705 72.8155C52.6705 72.8155 54.1321 72.4832 54.2802 80.9373L55.8867 80.773C55.8867 80.773 56.1797 72.9798 53.2532 71.1576L53.8391 65.6871L52.5224 65.3547L51.9364 70.9895C51.9364 70.9895 49.4642 71.3219 47.4034 79.6004Z" fill="black"/>
</svg>
